<svg xmlns="http://www.w3.org/2000/svg" xmlns:xlink="http://www.w3.org/1999/xlink" version="1.1" width="200px" height="200px" viewBox="0 1.7763568394002505e-15 21.999999999999996 21.999999999999996" xml:space="preserve">
<g transform="matrix(1 0 0 1 11 11)" id="spK2jjxqYUC3-71zbQ7rF"  >
<g style="" vector-effect="non-scaling-stroke"   >
		<g transform="matrix(1 0 0 1 0 0)" id="qsnF-4GA_KGlS-vCXMo2k"  >
<path style="stroke: none; stroke-width: 1; stroke-dasharray: none; stroke-linecap: butt; stroke-dashoffset: 0; stroke-linejoin: miter; stroke-miterlimit: 4; fill: rgb(33,33,33); fill-rule: nonzero; opacity: 1;" vector-effect="non-scaling-stroke"  transform=" translate(-11, -11)" d="M 11 21.5 C 16.799 21.5 21.5 16.799 21.5 11 C 21.5 5.20101 16.799 0.5 11 0.5 C 5.20101 0.5 0.5 5.20101 0.5 11 C 0.5 16.799 5.20101 21.5 11 21.5 Z" stroke-linecap="round" />
</g>
		<g transform="matrix(1 0 0 1 0 0)" id="HVO4pM2loQDwsM4C17BRg"  >
<path style="stroke: none; stroke-width: 1; stroke-dasharray: none; stroke-linecap: butt; stroke-dashoffset: 0; stroke-linejoin: miter; stroke-miterlimit: 4; fill: rgb(255,255,255); fill-rule: nonzero; opacity: 1;" vector-effect="non-scaling-stroke"  transform=" translate(-11, -11)" d="M 18.2188 11.0098 L 18.2188 11.0151 C 18.2166 11.0675 18.2025 11.1187 18.1774 11.1647 C 18.0855 11.3321 15.8864 15.2656 11.0007 15.2656 C 6.11487 15.2656 3.91447 11.3321 3.82325 11.1647 C 3.79797 11.1187 3.7836 11.0675 3.78125 11.0151 L 3.78125 10.9856 L 3.78191 10.9705 C 3.78573 10.9272 3.79775 10.8852 3.81734 10.8464 L 3.81866 10.8438 L 3.82259 10.8359 C 3.91447 10.6679 6.11422 6.73438 11 6.73438 C 15.8858 6.73438 18.0855 10.6686 18.1768 10.8359 L 18.1807 10.8438 L 18.1827 10.8471 C 18.2019 10.8857 18.2137 10.9275 18.2174 10.9705 L 18.2174 11.0007 L 18.2188 11.0098 Z M 17.4903 11 C 17.1208 10.4264 15.7322 8.51084 13.2148 7.74041 C 14.0253 8.30824 14.5954 9.15744 14.8141 10.1226 C 14.9867 10.162 15.1107 10.3168 15.114 10.4967 C 15.1173 10.6765 14.9992 10.8353 14.8273 10.8812 C 14.6553 10.9272 14.4762 10.8484 14.3908 10.6909 C 14.3496 10.6142 14.3348 10.526 14.349 10.44 C 14.3631 10.3541 14.4053 10.2752 14.4689 10.2158 C 14.1447 8.75694 12.9451 7.63016 11.4672 7.43394 C 11.4561 7.43259 11.4451 7.43017 11.4344 7.42672 C 11.1448 7.41118 10.8545 7.41118 10.5649 7.42672 C 10.5542 7.43017 10.5432 7.43258 10.5321 7.43394 C 9.95619 7.51145 9.40838 7.73013 8.93741 8.0705 C 8.91446 8.08681 8.88799 8.09745 8.86014 8.10158 C 8.8323 8.1057 8.80388 8.10318 8.77719 8.09422 C 8.75051 8.08526 8.72632 8.07012 8.70661 8.05003 C 8.68689 8.02994 8.67221 8.00547 8.66375 7.97862 C 8.65227 7.94223 8.65249 7.90316 8.66438 7.8669 C 8.67627 7.83064 8.69923 7.79903 8.73003 7.7765 C 8.7459 7.76498 8.76187 7.75361 8.77794 7.74238 C 6.2645 8.51478 4.8785 10.4264 4.50969 11 C 4.87522 11.569 6.24219 13.4544 8.71625 14.2386 C 7.90025 13.6428 7.34271 12.7578 7.15766 11.7645 C 6.99097 11.7022 6.88859 11.5329 6.90828 11.3537 C 6.92797 11.1746 7.06578 11.0322 7.24166 11.0092 C 7.41753 10.9862 7.58684 11.0879 7.65116 11.2566 C 7.68222 11.3381 7.68541 11.4275 7.66024 11.511 C 7.63507 11.5945 7.58295 11.6672 7.51203 11.7179 C 7.79422 13.1683 8.92166 14.295 10.3549 14.5595 C 10.7847 14.5949 11.2166 14.5949 11.6464 14.5595 C 12.1811 14.459 12.6854 14.2362 13.1197 13.9085 C 13.1447 13.8891 13.1744 13.8767 13.2058 13.8727 C 13.2372 13.8686 13.2691 13.8731 13.2982 13.8855 C 13.3274 13.8985 13.3527 13.9189 13.3715 13.9447 C 13.3904 13.9705 13.4021 14.0008 13.4055 14.0326 C 13.409 14.0643 13.4041 14.0964 13.3912 14.1257 C 13.3784 14.1549 13.358 14.1803 13.3323 14.1992 L 13.2752 14.2419 C 15.7545 13.459 17.1241 11.5696 17.4903 11 Z M 14.1631 11.0112 C 14.1631 12.7811 12.7443 14.2215 11 14.2215 C 9.25569 14.2215 7.83687 12.7811 7.83687 11.0112 C 7.83687 9.24125 9.25569 7.80144 11 7.80144 C 12.7443 7.80144 14.1631 9.24059 14.1631 11.0112 Z M 13.8061 11.0112 C 13.8061 9.44141 12.5474 8.16369 11 8.16369 C 9.45256 8.16369 8.19322 9.44075 8.19322 11.0118 C 8.19322 12.5829 9.45256 13.8586 11 13.8586 C 12.5474 13.8586 13.8061 12.5816 13.8061 11.0112 Z M 12.0343 10.1298 C 12.0343 10.4737 11.8643 10.7939 11.5814 10.9829 L 11.8636 12.7069 C 11.8701 12.7375 11.8696 12.7691 11.862 12.7994 C 11.8545 12.8297 11.8401 12.8579 11.8201 12.8819 C 11.8001 12.9058 11.7748 12.9249 11.7463 12.9377 C 11.7178 12.9505 11.6868 12.9566 11.6556 12.9556 L 10.3956 12.9556 C 10.3644 12.9566 10.3333 12.9504 10.3048 12.9377 C 10.2763 12.9249 10.251 12.9058 10.2309 12.8819 C 10.2108 12.8579 10.1965 12.8298 10.1888 12.7994 C 10.1812 12.7691 10.1805 12.7375 10.1869 12.7069 L 10.4678 10.9829 C 10.0662 10.7132 9.90866 10.1922 10.0918 9.74 C 10.2748 9.28784 10.748 9.03059 11.2205 9.12509 C 11.6937 9.22025 12.0343 9.64091 12.0343 10.1298 Z M 14.887 11.4705 C 14.7953 12.2926 14.4488 13.0655 13.896 13.6808 C 13.8752 13.7046 13.8484 13.7225 13.8183 13.7324 C 13.7882 13.7424 13.756 13.7441 13.7251 13.7374 C 13.6941 13.7307 13.6655 13.7158 13.6423 13.6943 C 13.619 13.6728 13.6019 13.6455 13.5928 13.6152 C 13.5833 13.5846 13.5819 13.552 13.5888 13.5207 C 13.5957 13.4893 13.6107 13.4604 13.6322 13.4367 C 14.1344 12.8776 14.4493 12.1754 14.5326 11.4285 C 14.5379 11.3813 14.5616 11.3382 14.5986 11.3084 C 14.6356 11.2787 14.6829 11.2647 14.7301 11.2697 C 14.8286 11.2815 14.8981 11.3714 14.887 11.4705 Z M 8.40978 8.27591 C 8.44426 8.30916 8.46427 8.35464 8.4655 8.40253 C 8.46672 8.45042 8.44907 8.49686 8.41634 8.53184 C 7.91294 9.07066 7.58699 9.75096 7.4825 10.4809 C 7.47552 10.5279 7.4502 10.5703 7.41208 10.5987 C 7.37395 10.6271 7.32613 10.6393 7.27906 10.6325 C 7.23203 10.6249 7.18989 10.5991 7.16176 10.5606 C 7.13364 10.5222 7.12179 10.4742 7.12878 10.4271 C 7.24407 9.62404 7.60301 8.8757 8.15712 8.28312 C 8.17318 8.26592 8.19249 8.25209 8.21394 8.24243 C 8.2354 8.23277 8.25856 8.22749 8.28208 8.22687 C 8.3056 8.22626 8.329 8.23034 8.35093 8.23887 C 8.37285 8.24741 8.39286 8.26022 8.40978 8.27656 L 8.40978 8.27591 Z" stroke-linecap="round" />
</g>
</g>
</g>
</svg>
