<svg
        viewBox="0 0 126.61 126.61"
        version="1.1"
        id="svg14"
        xmlns="http://www.w3.org/2000/svg"
>
  <defs
          id="defs18"/>
  <g
          fill="#f3ba2f"
          id="g12"
          transform="matrix(0.74576271,0,0,0.76269312,16.094492,15.021525)">
    <path
            d="M 38.73,53.2 63.32,28.62 87.92,53.22 102.22,38.91 63.32,0 24.42,38.9 Z"
            id="path2"/>
    <path
            d="M 0,63.31 14.3,49 28.61,63.31 14.3,77.61 Z"
            id="path4"/>
    <path
            d="M 38.73,73.41 63.32,98 87.92,73.4 102.23,87.69 63.33,126.6 24.42,87.72 Z"
            id="path6"/>
    <path
            d="M 98,63.31 112.3,49 126.61,63.3 112.3,77.62 Z"
            id="path8"/>
    <path
            d="M 77.83,63.3 63.32,48.78 52.59,59.51 l -1.24,1.23 -2.54,2.54 14.51,14.5 14.51,-14.47 z"
            id="path10"/>
  </g>
</svg>
