<svg width="281" height="151" viewBox="0 0 281 151" fill="none" xmlns="http://www.w3.org/2000/svg">
<path d="M19.4979 149.9H23.969L14.2195 128.136H9.74848L0 149.9H4.44003C7.03001 144.202 9.48608 138.45 11.985 132.71C14.4804 138.444 16.9459 144.191 19.4979 149.9Z" fill="white"/>
<path d="M58.7895 149.899H62.8879V128.196H58.1992L51.4001 137.526L44.6005 128.196H39.8809V149.899H43.9792V134.121L50.9034 143.576H51.7103L58.7895 134.152V149.899Z" fill="white"/>
<path d="M91.2804 128.136C87.8343 128.136 84.3877 128.136 80.9727 128.136V149.9C84.4187 149.9 87.8343 149.9 91.2804 149.9C95.7824 149.9 99.4151 148.348 99.4151 143.504C99.4151 142.139 98.4837 139.437 95.9375 138.661C97.9554 137.761 98.7628 136.141 98.7628 134.454C98.7628 130.061 95.5648 128.136 91.2804 128.136ZM85.0085 131.861H91.2804C93.8886 131.861 94.6959 133.548 94.6959 134.547C94.6959 135.799 93.8576 136.891 91.2804 136.891H85.0085V131.861ZM85.0085 140.492H91.2804C92.9571 140.492 95.3477 141.517 95.3477 143.473C95.3477 145.523 92.9571 146.081 91.2804 146.081H85.0085V140.492Z" fill="white"/>
<path d="M127.033 131.954C129.609 131.954 130.758 133.698 130.758 135.447C130.758 137.196 129.64 138.94 127.033 138.94H120.792V131.954H127.033V131.954ZM135.943 149.621L129.361 142.2C133.491 141.362 134.857 138.35 134.857 135.354C134.857 131.582 132.155 128.166 127.033 128.136C123.587 128.167 120.14 128.136 116.693 128.136V149.9H120.792V142.635H124.735L131.069 149.9H135.943V149.621Z" fill="white"/>
<path d="M162.195 131.456C167.318 131.456 169.367 135.554 169.305 139.218C169.243 142.788 167.318 146.638 162.195 146.638C157.072 146.638 155.147 142.819 155.054 139.249C154.961 135.585 157.072 131.456 162.195 131.456ZM162.195 127.729C154.681 127.729 151.018 133.474 151.018 139.186C151.018 144.899 154.557 150.395 162.195 150.395C169.833 150.395 173.279 144.775 173.342 139.155C173.403 133.474 169.678 127.729 162.195 127.729Z" fill="white"/>
<path d="M208.005 131.736C206.359 128.383 202.851 127.421 199.466 127.421C195.461 127.452 191.052 129.283 191.052 133.754C191.052 138.629 195.15 139.809 199.591 140.336C202.478 140.647 204.62 141.485 204.62 143.534C204.62 145.894 202.199 146.794 199.622 146.794C196.983 146.794 194.468 145.738 193.505 143.348L190.09 145.118C191.704 149.092 195.12 150.458 199.559 150.458C204.403 150.458 208.687 148.378 208.687 143.535C208.687 138.35 204.465 137.17 199.932 136.611C197.324 136.301 195.089 135.773 195.089 133.879C195.089 132.265 196.548 130.992 199.591 130.992C201.95 130.992 203.999 132.171 204.745 133.414L208.005 131.736Z" fill="white"/>
<path d="M241.213 128.196V140.646C241.213 144.372 239.288 146.639 235.904 146.639C232.52 146.639 230.284 144.559 230.284 140.646V128.196H226.217V140.646C226.217 147.198 230.657 150.364 235.873 150.364C241.337 150.364 245.28 147.073 245.28 140.646V128.196H241.213Z" fill="white"/>
<path d="M280.317 131.736C278.671 128.383 275.163 127.421 271.779 127.421C267.773 127.452 263.365 129.283 263.365 133.754C263.365 138.629 267.463 139.809 271.903 140.336C274.791 140.647 276.933 141.485 276.933 143.534C276.933 145.894 274.511 146.794 271.934 146.794C269.295 146.794 266.78 145.738 265.818 143.348L262.402 145.118C264.016 149.092 267.432 150.458 271.872 150.458C276.715 150.458 281 148.378 281 143.535C281 138.35 276.777 137.17 272.244 136.611C269.636 136.301 267.401 135.773 267.401 133.879C267.401 132.265 268.86 130.992 271.903 130.992C274.262 130.992 276.312 132.171 277.057 133.414L280.317 131.736Z" fill="white"/>
<path fill-rule="evenodd" clip-rule="evenodd" d="M139.699 95.0741C119.234 94.7951 100.887 81.2336 94.8973 61.2357C93.2516 60.5718 91.963 59.117 91.5907 57.245C91.0042 54.2948 92.9198 51.4284 95.8685 50.8409C98.8166 50.254 101.683 52.1706 102.269 55.1208C102.603 56.8031 102.125 58.4566 101.105 59.6777C106.368 76.7977 122.123 88.3958 139.699 88.6755C142.118 88.6322 144.568 88.3738 147.025 87.8852C164.381 84.4319 176.993 70.5172 179.62 53.9979C179.675 53.6516 179.725 53.3031 179.773 52.954C180.371 48.3957 186.661 49.2369 186.193 53.1795C183.824 73.0599 168.963 90.043 148.272 94.1601C145.396 94.7319 142.531 95.0295 139.699 95.0741ZM184.046 77.0313C189.893 73.9375 195.608 70.2141 201.133 65.851C207.031 61.1931 211.805 56.8272 216.8 51.2071C219.896 47.723 219.896 46.8186 216.8 43.3337C211.806 37.7137 207.031 33.3478 201.133 28.6899C195.436 24.192 189.54 20.3739 183.503 17.2244C180.521 12.8331 176.908 8.90631 172.797 5.56988C183.996 9.54335 194.877 15.5654 205.111 23.6464C210.949 28.2562 216.027 33.0289 220.787 38.2607C229.088 47.3828 229.088 47.1574 220.787 56.2788C216.026 61.5106 210.949 66.2826 205.111 70.8931C195.223 78.7006 184.73 84.5865 173.931 88.56C177.823 85.2222 181.233 81.3401 184.046 77.0313ZM95.3527 77.0313C89.5061 73.9375 83.7914 70.2141 78.2662 65.851C72.3674 61.1931 67.5937 56.8272 62.5989 51.2071C59.5032 47.723 59.5032 46.8186 62.5989 43.3337C67.5931 37.7137 72.3668 33.3478 78.2662 28.6899C83.9624 24.192 89.8591 20.3739 95.896 17.2244C98.8777 12.8331 102.491 8.90631 106.602 5.56988C95.4028 9.54335 84.5215 15.5654 74.2886 23.6464C68.4503 28.2562 63.373 33.0289 58.6123 38.2607C50.3115 47.3828 50.3115 47.1574 58.6123 56.2788C63.3736 61.5106 68.4503 66.2826 74.2886 70.8931C84.176 78.7006 94.6686 84.5865 105.468 88.56C101.576 85.2222 98.1654 81.3401 95.3527 77.0313ZM139.699 69.3778C128.984 69.3778 129.431 70.1674 130.375 65.293L133.769 47.7532C130.366 45.6496 128.098 41.883 128.098 37.5865C128.098 31.1027 133.262 25.8262 139.699 25.6489C146.137 25.8262 151.301 31.1027 151.301 37.5865C151.301 41.883 149.033 45.6496 145.63 47.7532L149.024 65.293C149.967 70.1674 150.413 69.3778 139.699 69.3778ZM139.699 14.4226C157.978 14.4226 172.797 29.2479 172.797 47.5367C172.797 65.8256 157.979 80.6516 139.699 80.6516C121.419 80.6516 106.601 65.8256 106.601 47.5367C106.601 29.2479 121.42 14.4226 139.699 14.4226ZM139.699 0C160.164 0.279009 178.51 13.8398 184.501 33.8378C186.147 34.5016 187.435 35.9565 187.807 37.8284C188.393 40.7787 186.478 43.6457 183.529 44.2319C180.58 44.8188 177.715 42.9028 177.129 39.9526C176.795 38.271 177.274 36.6169 178.292 35.3957C173.03 18.2758 157.274 6.67767 139.699 6.39797C137.28 6.44127 134.83 6.69966 132.373 7.18896C115.017 10.6415 102.405 24.5569 99.7775 41.0762C99.7218 41.4226 99.6717 41.771 99.625 42.1201C99.0254 46.6784 92.7357 45.8372 93.2035 41.8947C95.5739 22.0142 110.434 5.0311 131.125 0.914683C134.002 0.342233 136.868 0.044669 139.699 0Z" fill="white"/>
</svg>
