<svg width="20" height="20" viewBox="0 0 20 20" fill="none" xmlns="http://www.w3.org/2000/svg">
<path d="M18.6584 4.98042C17.7642 3.44828 16.5513 2.23528 15.0192 1.34115C13.487 0.446974 11.8142 0 9.99983 0C8.18563 0 6.51234 0.447111 4.98042 1.34115C3.44828 2.23523 2.23537 3.44828 1.34115 4.98042C0.447065 6.51253 0 8.18558 0 9.99958C0 12.1786 0.635732 14.138 1.90752 15.8783C3.17917 17.6187 4.82195 18.8231 6.83573 19.4915C7.07013 19.535 7.24366 19.5043 7.35648 19.4004C7.46936 19.2963 7.52573 19.166 7.52573 19.01C7.52573 18.9839 7.52349 18.7497 7.51916 18.3068C7.51469 17.8641 7.51259 17.4778 7.51259 17.1482L7.21311 17.2C7.02216 17.235 6.78127 17.2498 6.49045 17.2457C6.19977 17.2416 5.89799 17.2111 5.58556 17.1545C5.27298 17.0983 4.98225 16.9682 4.71313 16.7642C4.44416 16.5602 4.25321 16.2932 4.14033 15.9635L4.01013 15.6639C3.92335 15.4644 3.78672 15.2428 3.60005 14.9999C3.41339 14.7568 3.22463 14.592 3.03368 14.5052L2.94252 14.4399C2.88177 14.3966 2.82541 14.3443 2.77328 14.2836C2.7212 14.2228 2.68221 14.1621 2.65617 14.1012C2.63008 14.0404 2.6517 13.9904 2.72125 13.9513C2.79079 13.9121 2.91648 13.8931 3.09886 13.8931L3.35917 13.932C3.53278 13.9667 3.74754 14.0707 4.0037 14.2444C4.25973 14.418 4.47019 14.6437 4.63515 14.9213C4.8349 15.2772 5.07556 15.5486 5.35781 15.7352C5.63982 15.9218 5.92417 16.015 6.21058 16.015C6.49697 16.015 6.74433 15.9933 6.95274 15.9502C7.16093 15.9067 7.35626 15.8415 7.53863 15.7548C7.61675 15.1729 7.82946 14.7259 8.17656 14.4135C7.68183 14.3615 7.23705 14.2832 6.84197 14.1791C6.44712 14.0748 6.0391 13.9057 5.61817 13.671C5.197 13.4367 4.84762 13.1458 4.56993 12.7988C4.2922 12.4516 4.06427 11.9957 3.88645 11.4316C3.70855 10.8672 3.61958 10.2163 3.61958 9.4785C3.61958 8.428 3.96252 7.53408 4.64828 6.79618C4.32704 6.0064 4.35737 5.12103 4.73936 4.14015C4.99109 4.06194 5.36442 4.12063 5.85914 4.31587C6.35395 4.51119 6.71624 4.67852 6.94636 4.81725C7.17648 4.95593 7.36087 5.07346 7.49977 5.16877C8.30722 4.94317 9.1405 4.83034 9.99975 4.83034C10.859 4.83034 11.6925 4.94317 12.4999 5.16877L12.9948 4.85642C13.3331 4.64801 13.7326 4.45702 14.1924 4.2834C14.6524 4.10987 15.0042 4.06207 15.2474 4.14029C15.6379 5.12121 15.6727 6.00653 15.3513 6.79632C16.0371 7.53421 16.3802 8.42842 16.3802 9.47867C16.3802 10.2165 16.2908 10.8695 16.1132 11.4382C15.9353 12.0068 15.7055 12.4622 15.4234 12.8053C15.1411 13.1483 14.7895 13.4369 14.3686 13.6712C13.9475 13.9056 13.5394 14.0747 13.1445 14.179C12.7495 14.2832 12.3047 14.3617 11.81 14.4137C12.2612 14.8042 12.4868 15.4205 12.4868 16.2625V19.0096C12.4868 19.1657 12.5412 19.2959 12.6497 19.4001C12.7582 19.504 12.9296 19.5346 13.164 19.4911C15.1781 18.8228 16.8208 17.6184 18.0924 15.8779C19.3639 14.1376 19.9998 12.1782 19.9998 9.99917C19.9994 8.18545 19.5521 6.51253 18.6584 4.98042Z" fill="#565656"/>
</svg>
