<svg width="229" height="262" viewBox="0 0 229 262" fill="none" xmlns="http://www.w3.org/2000/svg">
<path d="M225.433 210.233L225.329 210.001L157.244 59.4438L157.215 59.3798L157.146 59.3679L-10.1159 28.4809L-10.0104 28.7124L58.0747 179.272L58.1032 179.335L58.1714 179.348L225.433 210.233ZM157.029 59.6166L224.978 209.879L58.2873 179.101L-9.66421 28.8382L157.029 59.6166Z" fill="url(#paint0_linear_146_1436)"/>
<path d="M215.494 212.511L215.389 212.28L150.302 68.3431L150.273 68.2791L150.204 68.2671L-9.71527 38.7365L-9.61046 38.969L55.4805 182.904L55.5091 182.968L55.5772 182.98L215.494 212.511ZM150.084 68.5163L215.041 212.157L55.6948 182.732L-9.26214 39.0909L150.084 68.5163Z" fill="url(#paint1_linear_146_1436)"/>
<path d="M205.556 214.789L205.451 214.557L143.326 77.1787L143.257 77.1659L-9.31632 48.992L-9.21149 49.2245L52.9155 186.603L52.9836 186.616L205.556 214.789ZM143.14 77.4146L205.103 214.435L53.101 186.366L-8.86141 49.3462L143.14 77.4146Z" fill="url(#paint2_linear_146_1436)"/>
<path d="M195.616 217.066L195.512 216.835L136.405 86.1412L136.377 86.078L136.308 86.065L-8.91392 59.2464L-8.80923 59.478L50.2928 190.171L50.3213 190.235L50.3895 190.247L195.616 217.066ZM136.195 86.3132L195.163 216.712L50.5072 190L-8.46079 59.6008L136.195 86.3132Z" fill="url(#paint3_linear_146_1436)"/>
<path d="M185.676 219.344L185.571 219.113L129.437 94.9769L129.368 94.9641L-8.51425 69.503L-8.40954 69.7346L47.7273 193.87L47.7956 193.883L185.676 219.344ZM129.25 95.2111L185.225 218.991L47.9105 193.635L-8.06423 69.8542L129.25 95.2111Z" fill="url(#paint4_linear_146_1436)"/>
<path d="M175.739 221.623L175.634 221.391L122.492 103.877L122.423 103.864L-8.1134 79.7587L-8.00869 79.9903L45.1337 197.505L45.2019 197.518L175.739 221.623ZM122.306 104.112L175.286 221.268L45.3195 197.269L-7.66027 80.1131L122.306 104.112Z" fill="url(#paint5_linear_146_1436)"/>
<path d="M165.8 223.9L165.695 223.669L115.551 112.776L115.483 112.763L-7.71319 90.0141L-7.60836 90.2465L42.5101 201.076L42.5394 201.139L42.6077 201.152L165.8 223.9ZM115.362 113.012L165.347 223.547L42.7252 200.903L-7.26004 90.3685L115.362 113.012Z" fill="url(#paint6_linear_146_1436)"/>
<path d="M155.861 226.178L155.756 225.947L108.602 121.674L108.534 121.661L-7.3133 100.27L-7.20773 100.501L39.9456 204.773L40.0137 204.785L155.861 226.178ZM108.417 121.911L155.408 225.824L40.1312 204.536L-6.86027 100.623L108.417 121.911Z" fill="url(#paint7_linear_146_1436)"/>
<path d="M145.922 228.456L145.817 228.224L101.654 130.575L101.585 130.562L-6.91887 110.526L-6.81416 110.758L37.3516 208.407L37.4199 208.42L145.922 228.456ZM101.472 130.81L145.467 228.103L37.5374 208.171L-6.45931 110.882L101.472 130.81Z" fill="url(#paint8_linear_146_1436)"/>
<path d="M135.984 230.734L135.879 230.503L94.7146 139.478L94.6455 139.465L-6.51545 120.781L-6.41075 121.013L34.7543 212.042L34.8226 212.055L135.984 230.734ZM94.5273 139.71L135.531 230.38L34.9433 211.803L-6.05878 121.135L94.5273 139.71Z" fill="url(#paint9_linear_146_1436)"/>
<path d="M126.044 233.012L125.94 232.78L87.7693 148.373L87.701 148.36L-6.11217 131.037L-6.00646 131.269L32.1639 215.675L32.2322 215.688L126.044 233.012ZM87.5835 148.609L125.591 232.659L32.3498 215.44L-5.65902 131.391L87.5835 148.609Z" fill="url(#paint10_linear_146_1436)"/>
<path d="M116.106 235.29L116.001 235.058L80.8253 157.271L80.7562 157.259L-5.71495 141.293L-5.61025 141.524L29.5666 219.31L29.6349 219.323L116.106 235.29ZM80.6387 157.508L115.653 234.936L29.756 219.074L-5.25575 141.645L80.6387 157.508Z" fill="url(#paint11_linear_146_1436)"/>
<path d="M106.165 237.568L106.06 237.336L73.8777 166.171L73.8086 166.159L-5.31364 151.548L-5.20893 151.78L26.9735 222.945L27.0416 222.957L106.165 237.568ZM73.692 166.408L105.712 237.214L27.1601 222.709L-4.85821 151.899L73.692 166.408Z" fill="url(#paint12_linear_146_1436)"/>
<path d="M96.2289 239.85L96.1243 239.618L66.9363 175.074L66.8682 175.062L-4.90956 161.807L-4.80486 162.038L24.3825 226.578L96.2289 239.85ZM66.7496 175.303L95.7752 239.491L24.5699 226.341L-4.45527 162.157L66.7496 175.303Z" fill="url(#paint13_linear_146_1436)"/>
<path d="M86.2896 242.124L86.184 241.892L59.9907 183.97L-4.51068 172.059L-4.40588 172.291L21.7882 230.213L86.2896 242.124ZM59.8049 184.206L85.8366 241.77L21.974 229.977L-4.05754 172.413L59.8049 184.206Z" fill="url(#paint14_linear_146_1436)"/>
<path d="M76.3507 244.402L76.246 244.17L53.0472 192.869L52.9781 192.856L-4.10953 182.315L-4.00485 182.546L19.1947 233.847L19.263 233.86L76.3507 244.402ZM52.8605 193.104L75.8977 244.048L19.3807 233.612L-3.65651 182.668L52.8605 193.104Z" fill="url(#paint15_linear_146_1436)"/>
<path d="M66.4121 246.679L66.3074 246.448L46.102 201.766L46.0329 201.754L-3.7093 192.568L-3.6046 192.8L16.6007 237.481L16.669 237.494L66.4121 246.679ZM45.9166 202.005L65.9564 246.326L16.7839 237.246L-3.25869 192.924L45.9166 202.005Z" fill="url(#paint16_linear_146_1436)"/>
<path d="M56.4729 248.957L56.3682 248.726L39.1573 210.666L39.089 210.653L-3.30953 202.824L-3.20482 203.055L14.0069 241.115L14.075 241.127L56.4729 248.957ZM38.9718 210.903L56.0197 248.603L14.1927 240.88L-2.85614 203.18L38.9718 210.903Z" fill="url(#paint17_linear_146_1436)"/>
<path d="M46.5342 251.235L46.4295 251.003L32.2126 219.566L32.1444 219.553L-2.9088 213.08L-2.8041 213.312L11.4129 244.749L46.5342 251.235ZM32.0233 219.803L46.081 250.879L11.5983 244.511L-2.45478 213.435L32.0233 219.803Z" fill="url(#paint18_linear_146_1436)"/>
<path d="M36.595 253.513L36.4903 253.281L25.2688 228.465L25.1996 228.452L-2.50816 223.335L-2.40461 223.572L8.81679 248.387L8.88594 248.399L36.595 253.513ZM25.0821 228.701L36.1419 253.158L9.00474 248.147L-2.05502 223.69L25.0821 228.701Z" fill="url(#paint19_linear_146_1436)"/>
<path d="M26.6545 255.795L18.322 237.369L18.2538 237.356L-2.11026 233.596L6.22225 252.022L26.6545 255.795ZM18.1363 237.605L26.2015 255.441L6.40892 251.786L-1.65725 233.95L18.1363 237.605Z" fill="url(#paint20_linear_146_1436)"/>
<path d="M16.7182 258.068L11.3794 246.264L-1.71107 243.847L3.62692 255.652L16.7182 258.068ZM11.1935 246.5L16.2651 257.714L3.81977 255.415L-1.25178 244.201L11.1935 246.5Z" fill="url(#paint21_linear_146_1436)"/>
<path d="M6.77887 260.347L4.43546 255.164L-1.30691 254.103L1.03749 259.287L6.77887 260.347ZM4.24879 255.4L6.32585 259.993L1.22327 259.051L-0.853774 254.457L4.24879 255.4Z" fill="url(#paint22_linear_146_1436)"/>
<defs>
<linearGradient id="paint0_linear_146_1436" x1="27.8258" y1="-7.71136" x2="245.44" y2="188.195" gradientUnits="userSpaceOnUse">
<stop stop-color="#360F8C"/>
<stop offset="1" stop-color="#15D378"/>
</linearGradient>
<linearGradient id="paint1_linear_146_1436" x1="26.5609" y1="4.13277" x2="234.624" y2="191.439" gradientUnits="userSpaceOnUse">
<stop stop-color="#360F8C"/>
<stop offset="1" stop-color="#15D378"/>
</linearGradient>
<linearGradient id="paint2_linear_146_1436" x1="25.2948" y1="15.9768" x2="223.806" y2="194.686" gradientUnits="userSpaceOnUse">
<stop stop-color="#360F8C"/>
<stop offset="1" stop-color="#15D378"/>
</linearGradient>
<linearGradient id="paint3_linear_146_1436" x1="24.0312" y1="27.8198" x2="212.991" y2="197.928" gradientUnits="userSpaceOnUse">
<stop stop-color="#360F8C"/>
<stop offset="1" stop-color="#15D378"/>
</linearGradient>
<linearGradient id="paint4_linear_146_1436" x1="22.7653" y1="39.6652" x2="202.173" y2="201.173" gradientUnits="userSpaceOnUse">
<stop stop-color="#360F8C"/>
<stop offset="1" stop-color="#15D378"/>
</linearGradient>
<linearGradient id="paint5_linear_146_1436" x1="21.501" y1="51.5094" x2="191.357" y2="204.419" gradientUnits="userSpaceOnUse">
<stop stop-color="#360F8C"/>
<stop offset="1" stop-color="#15D378"/>
</linearGradient>
<linearGradient id="paint6_linear_146_1436" x1="20.2358" y1="63.3534" x2="180.54" y2="207.664" gradientUnits="userSpaceOnUse">
<stop stop-color="#360F8C"/>
<stop offset="1" stop-color="#15D378"/>
</linearGradient>
<linearGradient id="paint7_linear_146_1436" x1="18.9704" y1="75.1979" x2="169.722" y2="210.91" gradientUnits="userSpaceOnUse">
<stop stop-color="#360F8C"/>
<stop offset="1" stop-color="#15D378"/>
</linearGradient>
<linearGradient id="paint8_linear_146_1436" x1="17.7006" y1="87.0428" x2="158.9" y2="214.161" gradientUnits="userSpaceOnUse">
<stop stop-color="#360F8C"/>
<stop offset="1" stop-color="#15D378"/>
</linearGradient>
<linearGradient id="paint9_linear_146_1436" x1="16.438" y1="98.8861" x2="148.087" y2="217.403" gradientUnits="userSpaceOnUse">
<stop stop-color="#360F8C"/>
<stop offset="1" stop-color="#15D378"/>
</linearGradient>
<linearGradient id="paint10_linear_146_1436" x1="15.1752" y1="110.73" x2="137.272" y2="220.645" gradientUnits="userSpaceOnUse">
<stop stop-color="#360F8C"/>
<stop offset="1" stop-color="#15D378"/>
</linearGradient>
<linearGradient id="paint11_linear_146_1436" x1="13.9077" y1="122.575" x2="126.452" y2="223.894" gradientUnits="userSpaceOnUse">
<stop stop-color="#360F8C"/>
<stop offset="1" stop-color="#15D378"/>
</linearGradient>
<linearGradient id="paint12_linear_146_1436" x1="12.6429" y1="134.419" x2="115.636" y2="227.136" gradientUnits="userSpaceOnUse">
<stop stop-color="#360F8C"/>
<stop offset="1" stop-color="#15D378"/>
</linearGradient>
<linearGradient id="paint13_linear_146_1436" x1="11.3814" y1="146.266" x2="104.823" y2="230.383" gradientUnits="userSpaceOnUse">
<stop stop-color="#360F8C"/>
<stop offset="1" stop-color="#15D378"/>
</linearGradient>
<linearGradient id="paint14_linear_146_1436" x1="10.1151" y1="158.107" x2="94.0046" y2="233.626" gradientUnits="userSpaceOnUse">
<stop stop-color="#360F8C"/>
<stop offset="1" stop-color="#15D378"/>
</linearGradient>
<linearGradient id="paint15_linear_146_1436" x1="8.85066" y1="169.951" x2="83.1881" y2="236.87" gradientUnits="userSpaceOnUse">
<stop stop-color="#360F8C"/>
<stop offset="1" stop-color="#15D378"/>
</linearGradient>
<linearGradient id="paint16_linear_146_1436" x1="7.58547" y1="181.794" x2="72.3727" y2="240.113" gradientUnits="userSpaceOnUse">
<stop stop-color="#360F8C"/>
<stop offset="1" stop-color="#15D378"/>
</linearGradient>
<linearGradient id="paint17_linear_146_1436" x1="6.31983" y1="193.637" x2="61.556" y2="243.358" gradientUnits="userSpaceOnUse">
<stop stop-color="#360F8C"/>
<stop offset="1" stop-color="#15D378"/>
</linearGradient>
<linearGradient id="paint18_linear_146_1436" x1="5.0552" y1="205.483" x2="50.7374" y2="246.604" gradientUnits="userSpaceOnUse">
<stop stop-color="#360F8C"/>
<stop offset="1" stop-color="#15D378"/>
</linearGradient>
<linearGradient id="paint19_linear_146_1436" x1="3.79025" y1="217.326" x2="39.9214" y2="249.848" gradientUnits="userSpaceOnUse">
<stop stop-color="#360F8C"/>
<stop offset="1" stop-color="#15D378"/>
</linearGradient>
<linearGradient id="paint20_linear_146_1436" x1="2.52295" y1="229.176" x2="29.1011" y2="253.099" gradientUnits="userSpaceOnUse">
<stop stop-color="#360F8C"/>
<stop offset="1" stop-color="#15D378"/>
</linearGradient>
<linearGradient id="paint21_linear_146_1436" x1="1.25744" y1="241.016" x2="18.2843" y2="256.343" gradientUnits="userSpaceOnUse">
<stop stop-color="#360F8C"/>
<stop offset="1" stop-color="#15D378"/>
</linearGradient>
<linearGradient id="paint22_linear_146_1436" x1="-0.00469108" y1="252.86" x2="7.47027" y2="259.585" gradientUnits="userSpaceOnUse">
<stop stop-color="#360F8C"/>
<stop offset="1" stop-color="#15D378"/>
</linearGradient>
</defs>
</svg>
