<svg width="21" height="20" viewBox="0 0 21 20" fill="none" xmlns="http://www.w3.org/2000/svg">
<path fill-rule="evenodd" clip-rule="evenodd" d="M0.704086 0.660716C1.17362 0.220382 1.78653 0 2.54295 0C3.29943 0 3.90578 0.220191 4.36133 0.660716C4.81693 1.10115 5.04951 1.65723 5.05861 2.32935C5.06766 2.99231 4.83757 3.54624 4.36822 3.99111C3.89888 4.43621 3.28128 4.6586 2.51556 4.6586H2.48822C1.74084 4.6586 1.13919 4.43602 0.68359 3.99111C0.227847 3.54624 0 2.99211 0 2.32935C0 1.65718 0.234599 1.10115 0.704086 0.660716ZM19.578 7.73273C18.6303 6.70196 17.3768 6.18648 15.8183 6.18648C15.2441 6.18648 14.7221 6.25685 14.2526 6.3977C13.7833 6.53845 13.3869 6.73593 13.0632 6.99024C12.7397 7.24454 12.4821 7.48062 12.2908 7.69847C12.109 7.9054 11.9311 8.14644 11.7576 8.41911V6.49957H7.25929L7.27308 7.15351C7.28232 7.58955 7.28687 8.9335 7.28687 11.1856C7.28687 13.4378 7.27777 16.3755 7.25948 19.999H11.7576V12.4659C11.7576 12.0029 11.8074 11.6351 11.9079 11.3625C12.0994 10.8991 12.3885 10.5111 12.7761 10.198C13.1637 9.8844 13.6443 9.72776 14.2187 9.72776C15.0024 9.72776 15.5791 9.9979 15.9483 10.5382C16.3173 11.0785 16.5019 11.8255 16.5019 12.7791V19.9986H21V12.2618C20.9997 10.2728 20.5261 8.76317 19.578 7.73273ZM4.77026 6.50075H0.258516V20H4.77026V6.50075Z" fill="#565656"/>
</svg>
