<svg width="28" height="24" viewBox="0 0 28 24" fill="none" xmlns="http://www.w3.org/2000/svg">
<path d="M27.0072 12.1796C26.9864 11.6089 26.8009 11.0564 26.4731 10.5888C26.1453 10.1211 25.6893 9.75828 25.1599 9.54397C24.6306 9.32966 24.0505 9.27305 23.4897 9.38095C22.9289 9.48886 22.4113 9.75668 21.9993 10.1521C19.6929 8.58429 16.9816 7.71811 14.1934 7.6583L15.5113 1.33248L19.8502 2.24486C19.9017 2.72433 20.1225 3.16971 20.4729 3.50107C20.8233 3.83242 21.2802 4.02804 21.7618 4.05282C22.2434 4.0776 22.7181 3.92991 23.1006 3.63626C23.4832 3.34262 23.7485 2.92224 23.849 2.4506C23.9495 1.97895 23.8786 1.48692 23.6491 1.06283C23.4195 0.63874 23.0463 0.310357 22.5964 0.136628C22.1466 -0.0371006 21.6495 -0.0447986 21.1945 0.114916C20.7395 0.27463 20.3563 0.591298 20.1137 1.00808L15.1463 0.0145998C15.0651 -0.00322252 14.9811 -0.00474397 14.8993 0.0101246C14.8175 0.0249931 14.7394 0.0559559 14.6696 0.101217C14.5998 0.146479 14.5397 0.20514 14.4928 0.2738C14.4459 0.34246 14.413 0.419753 14.3962 0.501201L12.8958 7.53665C10.0733 7.5792 7.32481 8.44604 4.98857 10.0305C4.67601 9.73639 4.30324 9.51379 3.8961 9.37809C3.48896 9.24239 3.05718 9.19684 2.63069 9.2446C2.20419 9.29235 1.79318 9.43228 1.42614 9.65467C1.0591 9.87706 0.744798 10.1766 0.505027 10.5325C0.265256 10.8885 0.105746 11.2923 0.0375508 11.716C-0.0306445 12.1397 -0.00589399 12.5732 0.110087 12.9864C0.226068 13.3995 0.430506 13.7826 0.709233 14.1089C0.98796 14.4352 1.33431 14.6971 1.72428 14.8762C1.70145 15.1732 1.70145 15.4714 1.72428 15.7683C1.72428 20.3099 7.01607 24 13.5446 24C20.0732 24 25.365 20.3099 25.365 15.7683C25.3878 15.4714 25.3878 15.1732 25.365 14.8762C25.8653 14.6275 26.285 14.2423 26.5756 13.7652C26.8663 13.288 27.0159 12.7383 27.0072 12.1796ZM6.73222 14.2071C6.73222 13.6694 6.94584 13.1537 7.32607 12.7735C7.7063 12.3932 8.222 12.1796 8.75973 12.1796C9.29746 12.1796 9.81316 12.3932 10.1934 12.7735C10.5736 13.1537 10.7872 13.6694 10.7872 14.2071C10.7872 14.7449 10.5736 15.2606 10.1934 15.6408C9.81316 16.021 9.29746 16.2347 8.75973 16.2347C8.222 16.2347 7.7063 16.021 7.32607 15.6408C6.94584 15.2606 6.73222 14.7449 6.73222 14.2071ZM18.512 19.7828C17.0735 20.8668 15.3037 21.4185 13.5041 21.344C11.7044 21.4185 9.93462 20.8668 8.49615 19.7828C8.40994 19.6777 8.36588 19.5444 8.37254 19.4086C8.37921 19.2729 8.43613 19.1445 8.53222 19.0484C8.62832 18.9523 8.75672 18.8954 8.89246 18.8887C9.02819 18.8821 9.16156 18.9261 9.26661 19.0123C10.4856 19.9065 11.9735 20.3571 13.4838 20.2897C14.9959 20.3719 16.4908 19.9356 17.7213 19.0529C17.7731 18.9948 17.8364 18.948 17.9071 18.9154C17.9778 18.8828 18.0544 18.8651 18.1323 18.8634C18.2101 18.8617 18.2875 18.876 18.3596 18.9055C18.4316 18.9349 18.4969 18.9789 18.5512 19.0347C18.6056 19.0904 18.6479 19.1567 18.6755 19.2295C18.7031 19.3023 18.7155 19.38 18.7118 19.4578C18.7081 19.5356 18.6885 19.6118 18.6541 19.6816C18.6197 19.7515 18.5714 19.8135 18.512 19.8639V19.7828ZM18.147 16.3158C17.746 16.3158 17.354 16.1968 17.0206 15.9741C16.6872 15.7513 16.4273 15.4346 16.2739 15.0641C16.1204 14.6937 16.0803 14.286 16.1585 13.8927C16.2367 13.4994 16.4298 13.1381 16.7134 12.8546C16.9969 12.571 17.3582 12.3779 17.7515 12.2997C18.1448 12.2215 18.5525 12.2616 18.9229 12.4151C19.2934 12.5685 19.6101 12.8284 19.8329 13.1618C20.0556 13.4952 20.1746 13.8872 20.1746 14.2882C20.1856 14.563 20.1406 14.837 20.0424 15.0938C19.9441 15.3506 19.7947 15.5848 19.6032 15.782C19.4116 15.9792 19.182 16.1354 18.9282 16.2411C18.6743 16.3468 18.4017 16.3998 18.1268 16.3969L18.147 16.3158Z" fill="#565656"/>
</svg>
