<svg width="24" height="20" viewBox="0 0 24 20" fill="none" xmlns="http://www.w3.org/2000/svg">
<path d="M24 2.36769C23.1172 2.76909 22.1676 3.04057 21.1718 3.16182C22.1886 2.53714 22.9689 1.54871 23.3372 0.36901C22.3858 0.947755 21.3315 1.3676 20.2104 1.5939C19.3122 0.61301 18.0325 0 16.6154 0C13.8966 0 11.6915 2.26113 11.6915 5.04904C11.6915 5.44479 11.7352 5.82999 11.8197 6.19976C7.72753 5.98927 4.09915 3.97929 1.67043 0.923656C1.24667 1.66921 1.00358 2.53714 1.00358 3.4623C1.00358 5.21359 1.8735 6.75967 3.19398 7.66488C2.38722 7.6389 1.62747 7.41184 0.963922 7.03267C0.963555 7.05413 0.963554 7.07559 0.963554 7.09668C0.963554 9.54307 2.66153 11.5835 4.91361 12.0471C4.50087 12.163 4.065 12.2244 3.61663 12.2244C3.29863 12.2244 2.99054 12.1932 2.69017 12.1344C3.31663 14.1399 5.13467 15.5997 7.28982 15.6408C5.60433 16.9952 3.4815 17.8021 1.17396 17.8021C0.777379 17.8021 0.384467 17.7784 0 17.7313C2.17791 19.1645 4.76673 20 7.54723 20C16.6041 20 21.557 12.3065 21.557 5.63381C21.557 5.41504 21.5522 5.19703 21.5426 4.98089C22.5055 4.26923 23.3401 3.38021 24 2.36769Z" fill="#565656"/>
</svg>
