<svg width="20" height="20" viewBox="0 0 20 20" fill="none" xmlns="http://www.w3.org/2000/svg">
<path d="M10 0.25C8.07164 0.25 6.18657 0.821827 4.58319 1.89317C2.97982 2.96451 1.73013 4.48726 0.992179 6.26884C0.254225 8.05042 0.061142 10.0108 0.437348 11.9021C0.813554 13.7934 1.74215 15.5307 3.10571 16.8943C4.46928 18.2579 6.20656 19.1865 8.09787 19.5627C9.98919 19.9389 11.9496 19.7458 13.7312 19.0078C15.5127 18.2699 17.0355 17.0202 18.1068 15.4168C19.1782 13.8134 19.75 11.9284 19.75 10C19.7471 7.41503 18.7189 4.93678 16.8911 3.10893C15.0632 1.28108 12.585 0.252918 10 0.25ZM9.25 5.5C9.25 5.30109 9.32902 5.11032 9.46967 4.96967C9.61033 4.82902 9.80109 4.75 10 4.75C10.1989 4.75 10.3897 4.82902 10.5303 4.96967C10.671 5.11032 10.75 5.30109 10.75 5.5V10.75C10.75 10.9489 10.671 11.1397 10.5303 11.2803C10.3897 11.421 10.1989 11.5 10 11.5C9.80109 11.5 9.61033 11.421 9.46967 11.2803C9.32902 11.1397 9.25 10.9489 9.25 10.75V5.5ZM10 15.25C9.7775 15.25 9.55999 15.184 9.37499 15.0604C9.18998 14.9368 9.04579 14.7611 8.96064 14.5555C8.87549 14.35 8.85321 14.1238 8.89662 13.9055C8.94003 13.6873 9.04718 13.4868 9.20451 13.3295C9.36184 13.1722 9.5623 13.065 9.78053 13.0216C9.99876 12.9782 10.225 13.0005 10.4305 13.0856C10.6361 13.1708 10.8118 13.315 10.9354 13.5C11.059 13.685 11.125 13.9025 11.125 14.125C11.125 14.4234 11.0065 14.7095 10.7955 14.9205C10.5845 15.1315 10.2984 15.25 10 15.25Z" fill="#F2C037"/>
</svg>
